<?xml version="1.0" standalone="no"?>
<!DOCTYPE svg PUBLIC "-//W3C//DTD SVG 20010904//EN"
 "http://www.w3.org/TR/2001/REC-SVG-20010904/DTD/svg10.dtd">
<svg version="1.0" xmlns="http://www.w3.org/2000/svg"
 width="190.000000pt" height="100.000000pt" viewBox="0 0 190.000000 100.000000"
 preserveAspectRatio="xMidYMid meet">
<metadata>
Created by potrace 1.10, written by Peter Selinger 2001-2011
</metadata>
<g transform="translate(0.000000,100.000000) scale(0.100000,-0.100000)"
fill="#000000" stroke="none">
<path d="M863 980 c-13 -5 -23 -14 -23 -20 0 -5 -8 -10 -18 -10 -24 0 -89 -55
-98 -83 -4 -12 -18 -40 -32 -61 -23 -37 -24 -48 -26 -187 -1 -147 10 -254 14
-134 7 198 42 305 111 344 39 22 103 28 114 11 4 -7 11 -8 18 -1 24 19 177 12
177 -8 0 -4 16 -16 35 -27 76 -40 114 -137 116 -289 0 -56 3 -82 8 -70 9 22
22 171 22 246 1 80 -59 171 -146 223 -16 10 -42 30 -57 44 -28 26 -65 34 -84
20 -6 -5 -24 -4 -38 2 -33 12 -63 12 -93 0z m137 -34 c36 -1 54 -8 85 -34 22
-17 43 -32 47 -32 16 0 71 -56 95 -98 32 -55 23 -67 -11 -14 -43 69 -160 126
-236 116 -25 -4 -71 -6 -103 -5 -43 2 -67 -3 -93 -18 -25 -15 -34 -17 -34 -7
0 17 19 33 89 73 43 25 63 31 86 26 17 -3 50 -7 75 -7z"/>
<path d="M459 825 c-105 -38 -173 -97 -212 -184 -30 -67 -29 -178 2 -248 l23
-53 48 0 c29 0 50 -5 53 -12 10 -25 7 21 -3 47 -5 14 -14 51 -18 80 l-9 55 49
0 48 0 0 -45 c0 -27 5 -45 11 -45 8 0 10 15 7 45 l-6 45 80 0 79 0 -7 -59
c-10 -89 -1 -111 41 -111 19 0 35 5 35 10 0 6 -16 10 -36 10 -19 0 -33 3 -31
8 3 4 6 34 8 67 2 33 8 66 14 74 7 10 6 15 -3 18 -6 3 -10 8 -8 12 2 3 1 34
-3 69 -6 48 -4 62 6 62 7 0 13 5 13 10 0 6 -6 10 -14 10 -8 0 -18 14 -21 33
-4 17 -14 44 -21 60 -18 34 -4 35 37 0 31 -27 32 -27 27 -5 -3 12 -2 20 2 17
5 -3 11 -1 14 4 8 12 -91 41 -136 40 -18 0 -49 -6 -69 -14z m103 -46 c9 -18
20 -46 23 -61 l7 -28 -61 0 -61 0 6 28 c11 45 44 104 57 100 7 -2 20 -20 29
-39z m-80 9 c-5 -7 -15 -32 -21 -55 -11 -40 -14 -43 -47 -43 l-35 0 18 31 c19
32 84 92 91 84 3 -2 0 -10 -6 -17z m-69 -20 c-17 -18 -36 -43 -42 -55 -8 -17
-21 -23 -43 -23 l-32 0 30 31 c31 33 92 77 108 78 6 1 -4 -14 -21 -31z m-72
-135 c-6 -21 -11 -53 -11 -70 0 -32 -1 -33 -46 -33 l-46 0 7 33 c4 17 14 49
22 69 12 30 20 37 46 40 18 2 33 2 35 2 2 -1 -1 -19 -7 -41z m101 -33 l-4 -70
-47 0 -48 0 8 50 c13 86 16 90 57 90 l37 0 -3 -70z m158 38 c0 -18 3 -50 6
-70 l7 -38 -79 0 -79 0 3 70 4 70 69 0 69 0 0 -32z m-270 -165 c1 -21 7 -55
14 -75 l14 -38 -38 0 c-34 0 -39 3 -53 38 -8 20 -17 54 -21 75 l-7 37 46 0 45
0 0 -37z"/>
<path d="M1282 789 c3 -8 60 -11 191 -10 l187 2 0 -135 0 -136 -185 0 -185 0
0 -22 0 -23 197 2 198 2 3 166 2 165 -206 0 c-148 0 -205 -3 -202 -11z"/>
<path d="M1047 607 c3 -5 -4 -6 -16 -2 -11 3 -21 2 -21 -3 0 -12 69 -32 111
-32 19 0 46 -7 62 -14 25 -14 27 -13 27 4 0 32 -47 55 -111 56 -32 0 -55 -4
-52 -9z"/>
<path d="M761 600 c-13 -3 -30 -15 -39 -28 -13 -19 -13 -22 3 -28 9 -4 20 -2
24 4 3 6 30 12 59 13 60 3 77 11 69 32 -6 16 -65 19 -116 7z"/>
<path d="M777 529 c-9 -6 -17 -15 -17 -21 0 -6 6 -6 15 2 13 11 18 10 29 -6
12 -16 16 -16 30 -5 9 8 15 19 13 25 -5 14 -48 17 -70 5z"/>
<path d="M1093 532 c-19 -3 -21 -7 -13 -23 13 -23 38 -25 46 -4 5 12 10 12 27
3 19 -10 20 -9 9 4 -15 18 -38 25 -69 20z"/>
<path d="M1277 443 c-13 -12 -7 -23 13 -23 11 0 20 -5 20 -11 0 -6 -9 -9 -20
-6 -11 3 -23 1 -26 -4 -3 -5 2 -9 12 -9 13 0 14 -3 4 -15 -7 -8 -9 -15 -5 -15
4 0 2 -7 -5 -15 -11 -13 -10 -14 3 -10 8 4 18 17 21 31 4 13 13 24 22 24 10 0
12 -5 7 -12 -11 -19 -13 -38 -2 -38 5 0 11 11 15 25 3 14 13 25 22 25 12 0 13
-3 5 -11 -12 -12 -7 -39 8 -39 5 0 8 3 8 8 -4 23 3 42 15 42 9 0 12 -8 8 -25
-2 -15 0 -25 7 -25 6 0 10 3 10 8 -4 23 3 42 15 42 9 0 12 -8 8 -25 -2 -15 0
-25 7 -25 7 0 10 4 6 9 -3 5 -1 12 5 16 6 4 8 11 5 16 -4 5 1 9 10 9 12 0 15
-5 11 -16 -4 -10 -2 -14 6 -11 7 2 12 10 11 16 -2 6 3 11 11 11 10 0 14 -9 13
-27 -1 -16 3 -28 8 -28 6 0 10 11 10 25 0 14 3 26 8 28 17 5 19 1 6 -14 -11
-13 -11 -15 2 -12 8 1 14 -1 14 -7 0 -5 -4 -9 -8 -7 -5 1 -6 -2 -2 -7 8 -14
35 -2 35 15 0 8 -3 14 -7 14 -5 0 -13 11 -20 25 -9 20 -8 25 3 25 8 0 14 -7
14 -15 0 -8 5 -15 11 -15 6 0 9 7 5 15 -4 12 3 15 35 15 26 0 39 -4 38 -12 -5
-40 2 -79 14 -75 12 4 12 18 1 85 l-5 32 -203 0 c-111 0 -206 -3 -209 -7z m73
-33 c0 -5 -7 -10 -15 -10 -8 0 -15 5 -15 10 0 6 7 10 15 10 8 0 15 -4 15 -10z
m40 0 c0 -5 -7 -10 -15 -10 -8 0 -15 5 -15 10 0 6 7 10 15 10 8 0 15 -4 15
-10z m40 0 c0 -5 -7 -10 -15 -10 -8 0 -15 5 -15 10 0 6 7 10 15 10 8 0 15 -4
15 -10z m40 0 c0 -5 -7 -10 -15 -10 -8 0 -15 5 -15 10 0 6 7 10 15 10 8 0 15
-4 15 -10z m80 2 c0 -4 -16 -8 -35 -9 -19 -1 -35 3 -35 8 0 5 16 9 35 9 19 0
35 -4 35 -8z"/>
<path d="M1635 373 c2 -21 7 -39 13 -41 7 -2 10 8 8 25 -2 15 -4 34 -5 41 0 6
-5 12 -9 12 -5 0 -8 -17 -7 -37z"/>
<path d="M410 255 l0 -135 30 0 30 0 0 135 0 135 -30 0 -30 0 0 -135z"/>
<path d="M1090 255 l0 -135 25 0 c16 0 25 6 25 15 0 14 3 14 25 -1 55 -36 121
13 119 90 -2 53 -42 91 -88 82 -16 -4 -34 -12 -38 -19 -4 -6 -8 14 -8 46 0 57
0 57 -30 57 l-30 0 0 -135z m124 -1 c25 -25 20 -72 -9 -86 -33 -15 -55 4 -55
46 0 51 33 72 64 40z"/>
<path d="M538 353 c-10 -2 -18 -13 -18 -24 0 -10 -4 -19 -10 -19 -5 0 -10 -9
-10 -20 0 -11 5 -20 10 -20 6 0 10 -25 10 -55 0 -65 22 -95 70 -95 26 0 30 4
30 26 0 19 -4 25 -15 20 -18 -6 -21 1 -28 62 -5 39 -3 42 19 42 17 0 24 6 24
20 0 14 -7 20 -24 20 -19 0 -22 4 -18 25 4 25 -2 28 -40 18z m17 -73 c-5 -8
-11 -8 -17 -2 -6 6 -7 16 -3 22 5 8 11 8 17 2 6 -6 7 -16 3 -22z"/>
<path d="M42 294 c-14 -10 -22 -25 -22 -45 0 -26 6 -33 40 -46 54 -21 54 -46
0 -41 -28 2 -41 -1 -45 -11 -9 -22 15 -32 62 -28 54 6 73 21 73 59 0 25 -6 32
-40 46 -51 22 -54 46 -6 40 27 -3 36 0 39 13 8 31 -62 41 -101 13z"/>
<path d="M223 291 c-48 -30 -55 -98 -15 -143 21 -24 76 -33 113 -18 58 25 76
113 30 154 -30 27 -90 31 -128 7z m86 -35 c17 -20 10 -77 -11 -90 -26 -16 -52
4 -56 43 -4 36 12 61 38 61 10 0 23 -6 29 -14z"/>
<path d="M683 291 c-48 -30 -55 -98 -15 -143 21 -24 76 -33 113 -18 58 25 76
113 30 154 -30 27 -90 31 -128 7z m86 -35 c17 -20 10 -77 -11 -90 -26 -16 -52
4 -56 43 -4 36 12 61 38 61 10 0 23 -6 29 -14z"/>
<path d="M870 215 l0 -95 30 0 30 0 0 65 c0 51 4 66 18 73 33 18 42 3 42 -69
l0 -69 30 0 30 0 0 70 c0 62 -3 74 -25 95 -28 29 -51 31 -83 9 -20 -14 -22
-14 -22 0 0 10 -9 16 -25 16 -25 0 -25 0 -25 -95z"/>
<path d="M1348 303 c-10 -2 -18 -13 -18 -23 0 -15 6 -17 43 -13 34 4 45 2 50
-11 5 -13 -1 -16 -29 -16 -24 0 -43 -8 -59 -25 -30 -29 -31 -49 -5 -75 22 -22
51 -26 81 -10 13 7 19 7 19 0 0 -5 11 -10 25 -10 24 0 25 2 25 70 0 62 -3 74
-25 95 -23 24 -61 30 -107 18z m82 -106 c0 -18 -21 -37 -41 -37 -24 0 -33 18
-19 35 15 19 60 20 60 2z"/>
<path d="M1549 281 c-53 -54 -34 -139 36 -157 40 -10 98 4 91 22 -3 9 -6 17
-6 18 0 1 -17 0 -38 -2 -26 -3 -42 1 -51 12 -12 14 -7 16 49 16 l63 0 -6 38
c-7 43 -46 82 -83 82 -15 0 -38 -12 -55 -29z m81 -15 c0 -2 3 -11 6 -20 5 -13
-1 -16 -30 -16 -39 0 -39 0 -30 24 5 14 54 24 54 12z"/>
<path d="M1712 298 c3 -7 18 -50 34 -95 26 -76 31 -83 55 -83 25 0 30 8 61 93
l34 92 -24 3 c-13 2 -26 1 -29 -1 -3 -3 -13 -36 -22 -74 l-17 -68 -18 73 c-18
69 -19 72 -48 72 -20 0 -29 -4 -26 -12z"/>
</g>
</svg>
